<svg id="visual" viewBox="0 0 900 600" width="900" height="600" xmlns="http://www.w3.org/2000/svg" xmlns:xlink="http://www.w3.org/1999/xlink" version="1.1"><g stroke-width="1" stroke-linejoin="bevel"><path d="M419 260L506 209L414 220Z" fill="#0c2435" stroke="#0c2435"></path><path d="M419 260L535 305L506 209Z" fill="#205a7a" stroke="#205a7a"></path><path d="M535 305L577 221L506 209Z" fill="#277297" stroke="#277297"></path><path d="M517 76L405 123L506 209Z" fill="#297ea6" stroke="#297ea6"></path><path d="M506 209L405 123L414 220Z" fill="#15384f" stroke="#15384f"></path><path d="M486 401L572 324L535 305Z" fill="#19435d" stroke="#19435d"></path><path d="M535 305L572 324L577 221Z" fill="#15384f" stroke="#15384f"></path><path d="M405 123L319 161L414 220Z" fill="#205a7a" stroke="#205a7a"></path><path d="M414 220L316 306L419 260Z" fill="#297ea6" stroke="#297ea6"></path><path d="M319 161L316 306L414 220Z" fill="#277297" stroke="#277297"></path><path d="M419 260L486 401L535 305Z" fill="#246688" stroke="#246688"></path><path d="M316 306L365 370L419 260Z" fill="#205a7a" stroke="#205a7a"></path><path d="M607 105L517 76L506 209Z" fill="#112e42" stroke="#112e42"></path><path d="M365 370L486 401L419 260Z" fill="#246688" stroke="#246688"></path><path d="M714 216L607 105L577 221Z" fill="#15384f" stroke="#15384f"></path><path d="M577 221L607 105L506 209Z" fill="#0c2435" stroke="#0c2435"></path><path d="M393 0L332 88L405 123Z" fill="#205a7a" stroke="#205a7a"></path><path d="M405 123L332 88L319 161Z" fill="#0c2435" stroke="#0c2435"></path><path d="M577 0L505 0L517 76Z" fill="#19435d" stroke="#19435d"></path><path d="M517 76L393 0L405 123Z" fill="#081a28" stroke="#081a28"></path><path d="M486 401L628 411L572 324Z" fill="#19435d" stroke="#19435d"></path><path d="M572 324L707 275L577 221Z" fill="#246688" stroke="#246688"></path><path d="M316 306L325 435L365 370Z" fill="#00101c" stroke="#00101c"></path><path d="M365 370L325 435L486 401Z" fill="#205a7a" stroke="#205a7a"></path><path d="M486 401L566 467L628 411Z" fill="#081a28" stroke="#081a28"></path><path d="M505 0L393 0L517 76Z" fill="#0c2435" stroke="#0c2435"></path><path d="M628 411L707 275L572 324Z" fill="#1d4e6b" stroke="#1d4e6b"></path><path d="M707 275L714 216L577 221Z" fill="#277297" stroke="#277297"></path><path d="M539 511L566 467L486 401Z" fill="#19435d" stroke="#19435d"></path><path d="M607 105L577 0L517 76Z" fill="#00101c" stroke="#00101c"></path><path d="M715 0L577 0L607 105Z" fill="#19435d" stroke="#19435d"></path><path d="M393 0L338 0L332 88Z" fill="#19435d" stroke="#19435d"></path><path d="M199 132L198 203L319 161Z" fill="#205a7a" stroke="#205a7a"></path><path d="M199 132L319 161L332 88Z" fill="#0c2435" stroke="#0c2435"></path><path d="M319 161L198 203L316 306Z" fill="#19435d" stroke="#19435d"></path><path d="M316 306L237 428L325 435Z" fill="#246688" stroke="#246688"></path><path d="M207 0L199 132L332 88Z" fill="#246688" stroke="#246688"></path><path d="M404 532L539 511L486 401Z" fill="#0c2435" stroke="#0c2435"></path><path d="M719 475L727 412L628 411Z" fill="#246688" stroke="#246688"></path><path d="M118 224L181 296L198 203Z" fill="#1d4e6b" stroke="#1d4e6b"></path><path d="M198 203L181 296L316 306Z" fill="#277297" stroke="#277297"></path><path d="M181 296L237 428L316 306Z" fill="#15384f" stroke="#15384f"></path><path d="M325 435L404 532L486 401Z" fill="#00101c" stroke="#00101c"></path><path d="M789 168L733 109L714 216Z" fill="#205a7a" stroke="#205a7a"></path><path d="M714 216L733 109L607 105Z" fill="#112e42" stroke="#112e42"></path><path d="M292 493L404 532L325 435Z" fill="#0c2435" stroke="#0c2435"></path><path d="M237 428L292 493L325 435Z" fill="#205a7a" stroke="#205a7a"></path><path d="M719 475L628 411L566 467Z" fill="#19435d" stroke="#19435d"></path><path d="M628 411L727 412L707 275Z" fill="#205a7a" stroke="#205a7a"></path><path d="M839 303L789 168L714 216Z" fill="#19435d" stroke="#19435d"></path><path d="M839 303L714 216L707 275Z" fill="#00101c" stroke="#00101c"></path><path d="M199 132L118 224L198 203Z" fill="#0c2435" stroke="#0c2435"></path><path d="M181 296L111 317L237 428Z" fill="#00101c" stroke="#00101c"></path><path d="M771 0L715 0L733 109Z" fill="#297ea6" stroke="#297ea6"></path><path d="M733 109L715 0L607 105Z" fill="#081a28" stroke="#081a28"></path><path d="M338 0L207 0L332 88Z" fill="#297ea6" stroke="#297ea6"></path><path d="M199 132L60 114L118 224Z" fill="#277297" stroke="#277297"></path><path d="M699 600L719 475L566 467Z" fill="#277297" stroke="#277297"></path><path d="M727 412L839 303L707 275Z" fill="#0c2435" stroke="#0c2435"></path><path d="M118 224L111 317L181 296Z" fill="#00101c" stroke="#00101c"></path><path d="M231 600L322 600L292 493Z" fill="#246688" stroke="#246688"></path><path d="M404 532L460 600L539 511Z" fill="#00101c" stroke="#00101c"></path><path d="M539 511L570 600L566 467Z" fill="#297ea6" stroke="#297ea6"></path><path d="M385 600L460 600L404 532Z" fill="#1d4e6b" stroke="#1d4e6b"></path><path d="M322 600L404 532L292 493Z" fill="#112e42" stroke="#112e42"></path><path d="M322 600L385 600L404 532Z" fill="#246688" stroke="#246688"></path><path d="M460 600L570 600L539 511Z" fill="#205a7a" stroke="#205a7a"></path><path d="M823 438L839 303L727 412Z" fill="#15384f" stroke="#15384f"></path><path d="M817 73L771 0L733 109Z" fill="#081a28" stroke="#081a28"></path><path d="M817 73L733 109L789 168Z" fill="#246688" stroke="#246688"></path><path d="M900 114L817 73L789 168Z" fill="#277297" stroke="#277297"></path><path d="M194 525L292 493L237 428Z" fill="#19435d" stroke="#19435d"></path><path d="M75 415L194 525L237 428Z" fill="#1d4e6b" stroke="#1d4e6b"></path><path d="M808 467L727 412L719 475Z" fill="#19435d" stroke="#19435d"></path><path d="M808 467L823 438L727 412Z" fill="#0c2435" stroke="#0c2435"></path><path d="M773 600L808 467L719 475Z" fill="#277297" stroke="#277297"></path><path d="M207 0L60 114L199 132Z" fill="#277297" stroke="#277297"></path><path d="M118 224L0 280L111 317Z" fill="#1d4e6b" stroke="#1d4e6b"></path><path d="M0 403L75 415L111 317Z" fill="#297ea6" stroke="#297ea6"></path><path d="M111 317L75 415L237 428Z" fill="#00101c" stroke="#00101c"></path><path d="M61 600L231 600L194 525Z" fill="#15384f" stroke="#15384f"></path><path d="M194 525L231 600L292 493Z" fill="#1d4e6b" stroke="#1d4e6b"></path><path d="M570 600L699 600L566 467Z" fill="#297ea6" stroke="#297ea6"></path><path d="M900 324L900 233L839 303Z" fill="#0c2435" stroke="#0c2435"></path><path d="M839 303L900 233L789 168Z" fill="#15384f" stroke="#15384f"></path><path d="M900 388L900 324L839 303Z" fill="#277297" stroke="#277297"></path><path d="M900 388L839 303L823 438Z" fill="#246688" stroke="#246688"></path><path d="M900 233L900 114L789 168Z" fill="#246688" stroke="#246688"></path><path d="M817 73L900 0L771 0Z" fill="#297ea6" stroke="#297ea6"></path><path d="M900 475L823 438L808 467Z" fill="#1d4e6b" stroke="#1d4e6b"></path><path d="M900 475L900 388L823 438Z" fill="#246688" stroke="#246688"></path><path d="M0 180L0 280L118 224Z" fill="#00101c" stroke="#00101c"></path><path d="M60 114L0 180L118 224Z" fill="#0c2435" stroke="#0c2435"></path><path d="M207 0L60 0L60 114Z" fill="#112e42" stroke="#112e42"></path><path d="M60 114L0 91L0 180Z" fill="#112e42" stroke="#112e42"></path><path d="M699 600L773 600L719 475Z" fill="#19435d" stroke="#19435d"></path><path d="M60 0L0 91L60 114Z" fill="#00101c" stroke="#00101c"></path><path d="M0 524L77 536L75 415Z" fill="#297ea6" stroke="#297ea6"></path><path d="M75 415L77 536L194 525Z" fill="#112e42" stroke="#112e42"></path><path d="M0 280L0 403L111 317Z" fill="#15384f" stroke="#15384f"></path><path d="M900 114L900 0L817 73Z" fill="#112e42" stroke="#112e42"></path><path d="M900 600L900 475L808 467Z" fill="#0c2435" stroke="#0c2435"></path><path d="M60 0L0 0L0 91Z" fill="#246688" stroke="#246688"></path><path d="M77 536L61 600L194 525Z" fill="#246688" stroke="#246688"></path><path d="M0 524L61 600L77 536Z" fill="#297ea6" stroke="#297ea6"></path><path d="M0 403L0 524L75 415Z" fill="#00101c" stroke="#00101c"></path><path d="M773 600L900 600L808 467Z" fill="#246688" stroke="#246688"></path><path d="M0 524L0 600L61 600Z" fill="#112e42" stroke="#112e42"></path></g></svg>