<svg id="visual" viewBox="0 0 900 600" width="900" height="600" xmlns="http://www.w3.org/2000/svg" xmlns:xlink="http://www.w3.org/1999/xlink" version="1.1"><path d="M0 67L13.7 67C27.3 67 54.7 67 82 69C109.3 71 136.7 75 163.8 88C191 101 218 123 245.2 136C272.3 149 299.7 153 327 155C354.3 157 381.7 157 409 152C436.3 147 463.7 137 491 132C518.3 127 545.7 127 573 133C600.3 139 627.7 151 654.8 151C682 151 709 139 736.2 133C763.3 127 790.7 127 818 124C845.3 121 872.7 115 886.3 112L900 109L900 0L886.3 0C872.7 0 845.3 0 818 0C790.7 0 763.3 0 736.2 0C709 0 682 0 654.8 0C627.7 0 600.3 0 573 0C545.7 0 518.3 0 491 0C463.7 0 436.3 0 409 0C381.7 0 354.3 0 327 0C299.7 0 272.3 0 245.2 0C218 0 191 0 163.8 0C136.7 0 109.3 0 82 0C54.7 0 27.3 0 13.7 0L0 0Z" fill="#6198ff"></path><path d="M0 319L13.7 301C27.3 283 54.7 247 82 244C109.3 241 136.7 271 163.8 283C191 295 218 289 245.2 298C272.3 307 299.7 331 327 346C354.3 361 381.7 367 409 348C436.3 329 463.7 285 491 266C518.3 247 545.7 253 573 252C600.3 251 627.7 243 654.8 249C682 255 709 275 736.2 289C763.3 303 790.7 311 818 310C845.3 309 872.7 299 886.3 294L900 289L900 107L886.3 110C872.7 113 845.3 119 818 122C790.7 125 763.3 125 736.2 131C709 137 682 149 654.8 149C627.7 149 600.3 137 573 131C545.7 125 518.3 125 491 130C463.7 135 436.3 145 409 150C381.7 155 354.3 155 327 153C299.7 151 272.3 147 245.2 134C218 121 191 99 163.8 86C136.7 73 109.3 69 82 67C54.7 65 27.3 65 13.7 65L0 65Z" fill="#3c80ff"></path><path d="M0 373L13.7 359C27.3 345 54.7 317 82 321C109.3 325 136.7 361 163.8 376C191 391 218 385 245.2 394C272.3 403 299.7 427 327 442C354.3 457 381.7 463 409 441C436.3 419 463.7 369 491 344C518.3 319 545.7 319 573 320C600.3 321 627.7 323 654.8 332C682 341 709 357 736.2 377C763.3 397 790.7 421 818 419C845.3 417 872.7 389 886.3 375L900 361L900 287L886.3 292C872.7 297 845.3 307 818 308C790.7 309 763.3 301 736.2 287C709 273 682 253 654.8 247C627.7 241 600.3 249 573 250C545.7 251 518.3 245 491 264C463.7 283 436.3 327 409 346C381.7 365 354.3 359 327 344C299.7 329 272.3 305 245.2 296C218 287 191 293 163.8 281C136.7 269 109.3 239 82 242C54.7 245 27.3 281 13.7 299L0 317Z" fill="#0066ff"></path><path d="M0 505L13.7 506C27.3 507 54.7 509 82 518C109.3 527 136.7 543 163.8 547C191 551 218 543 245.2 542C272.3 541 299.7 547 327 551C354.3 555 381.7 557 409 551C436.3 545 463.7 531 491 521C518.3 511 545.7 505 573 509C600.3 513 627.7 527 654.8 529C682 531 709 521 736.2 519C763.3 517 790.7 523 818 524C845.3 525 872.7 521 886.3 519L900 517L900 359L886.3 373C872.7 387 845.3 415 818 417C790.7 419 763.3 395 736.2 375C709 355 682 339 654.8 330C627.7 321 600.3 319 573 318C545.7 317 518.3 317 491 342C463.7 367 436.3 417 409 439C381.7 461 354.3 455 327 440C299.7 425 272.3 401 245.2 392C218 383 191 389 163.8 374C136.7 359 109.3 323 82 319C54.7 315 27.3 343 13.7 357L0 371Z" fill="#0059dd"></path><path d="M0 601L13.7 601C27.3 601 54.7 601 82 601C109.3 601 136.7 601 163.8 601C191 601 218 601 245.2 601C272.3 601 299.7 601 327 601C354.3 601 381.7 601 409 601C436.3 601 463.7 601 491 601C518.3 601 545.7 601 573 601C600.3 601 627.7 601 654.8 601C682 601 709 601 736.2 601C763.3 601 790.7 601 818 601C845.3 601 872.7 601 886.3 601L900 601L900 515L886.3 517C872.7 519 845.3 523 818 522C790.7 521 763.3 515 736.2 517C709 519 682 529 654.8 527C627.7 525 600.3 511 573 507C545.7 503 518.3 509 491 519C463.7 529 436.3 543 409 549C381.7 555 354.3 553 327 549C299.7 545 272.3 539 245.2 540C218 541 191 549 163.8 545C136.7 541 109.3 525 82 516C54.7 507 27.3 505 13.7 504L0 503Z" fill="#004cbb"></path></svg>